<mxfile host="Electron" modified="2024-05-01T16:30:26.372Z" agent="Mozilla/5.0 (Macintosh; Intel Mac OS X 10_15_7) AppleWebKit/537.36 (KHTML, like Gecko) draw.io/24.2.5 Chrome/120.0.6099.109 Electron/28.1.0 Safari/537.36" etag="4obt_eMpcjUtFXfImUOg" version="24.2.5" type="device">
  <diagram id="C5RBs43oDa-KdzZeNtuy" name="Page-1">
    <mxGraphModel dx="1434" dy="843" grid="1" gridSize="10" guides="1" tooltips="1" connect="1" arrows="1" fold="1" page="1" pageScale="1" pageWidth="827" pageHeight="1169" math="0" shadow="0">
      <root>
        <mxCell id="WIyWlLk6GJQsqaUBKTNV-0" />
        <mxCell id="WIyWlLk6GJQsqaUBKTNV-1" parent="WIyWlLk6GJQsqaUBKTNV-0" />
        <mxCell id="SvODSNYQF4nknYnjiTSU-18" style="edgeStyle=none;curved=1;rounded=0;orthogonalLoop=1;jettySize=auto;html=1;entryX=0.5;entryY=0;entryDx=0;entryDy=0;fontSize=12;startSize=8;endSize=8;" parent="WIyWlLk6GJQsqaUBKTNV-1" source="YSQYYeWARFUIAERYPVnf-10" target="SvODSNYQF4nknYnjiTSU-14" edge="1">
          <mxGeometry relative="1" as="geometry" />
        </mxCell>
        <mxCell id="GrfxNoX1KZF58iYZK9aE-19" style="edgeStyle=none;curved=1;rounded=0;orthogonalLoop=1;jettySize=auto;html=1;fontSize=12;startSize=8;endSize=8;" parent="WIyWlLk6GJQsqaUBKTNV-1" source="IjD-qpXpODSvRZLo4zJF-0" target="IjD-qpXpODSvRZLo4zJF-8" edge="1">
          <mxGeometry relative="1" as="geometry" />
        </mxCell>
        <mxCell id="IjD-qpXpODSvRZLo4zJF-0" value="Start" style="ellipse;whiteSpace=wrap;html=1;fillColor=#e51400;strokeColor=#B20000;fontColor=#ffffff;" parent="WIyWlLk6GJQsqaUBKTNV-1" vertex="1">
          <mxGeometry x="40" y="20" width="200" height="40" as="geometry" />
        </mxCell>
        <mxCell id="IjD-qpXpODSvRZLo4zJF-8" value="Eingabe:&lt;br style=&quot;font-size: 10px;&quot;&gt;zvE&lt;br style=&quot;font-size: 10px;&quot;&gt;(float)" style="shape=parallelogram;perimeter=parallelogramPerimeter;whiteSpace=wrap;html=1;fixedSize=1;fillColor=#76608a;strokeColor=#432D57;fontColor=#ffffff;fontSize=10;" parent="WIyWlLk6GJQsqaUBKTNV-1" vertex="1">
          <mxGeometry x="40" y="100" width="200" height="40" as="geometry" />
        </mxCell>
        <mxCell id="GrfxNoX1KZF58iYZK9aE-7" value="Gruppe 3, Lohnsteuerpflicht und&amp;nbsp;Lohnsteuerbetrag berechnen (ohne / anschlieÃŸend mit Ehegattensplitting)" style="text;strokeColor=none;fillColor=none;html=1;align=center;verticalAlign=middle;whiteSpace=wrap;rounded=0;fontSize=16;fontColor=#B3B3B3;" parent="WIyWlLk6GJQsqaUBKTNV-1" vertex="1">
          <mxGeometry x="414" width="411" height="90" as="geometry" />
        </mxCell>
        <mxCell id="YSQYYeWARFUIAERYPVnf-30" style="edgeStyle=none;curved=1;rounded=0;orthogonalLoop=1;jettySize=auto;html=1;exitX=1;exitY=0.5;exitDx=0;exitDy=0;entryX=0;entryY=0.5;entryDx=0;entryDy=0;fontSize=12;startSize=8;endSize=8;" parent="WIyWlLk6GJQsqaUBKTNV-1" source="GrfxNoX1KZF58iYZK9aE-24" edge="1">
          <mxGeometry relative="1" as="geometry">
            <mxPoint x="330" y="200" as="targetPoint" />
          </mxGeometry>
        </mxCell>
        <mxCell id="YSQYYeWARFUIAERYPVnf-31" value="" style="edgeStyle=none;curved=1;rounded=0;orthogonalLoop=1;jettySize=auto;html=1;fontSize=12;startSize=8;endSize=8;" parent="WIyWlLk6GJQsqaUBKTNV-1" source="GrfxNoX1KZF58iYZK9aE-24" edge="1">
          <mxGeometry relative="1" as="geometry">
            <mxPoint x="140" y="260" as="targetPoint" />
          </mxGeometry>
        </mxCell>
        <mxCell id="GrfxNoX1KZF58iYZK9aE-24" value="zvE&amp;lt;0" style="rounded=0;whiteSpace=wrap;html=1;fillColor=#0050ef;strokeColor=#001DBC;fontColor=#ffffff;" parent="WIyWlLk6GJQsqaUBKTNV-1" vertex="1">
          <mxGeometry x="40" y="180" width="200" height="40" as="geometry" />
        </mxCell>
        <mxCell id="GrfxNoX1KZF58iYZK9aE-25" style="edgeStyle=none;curved=1;rounded=0;orthogonalLoop=1;jettySize=auto;html=1;entryX=0.504;entryY=-0.075;entryDx=0;entryDy=0;entryPerimeter=0;fontSize=12;startSize=8;endSize=8;" parent="WIyWlLk6GJQsqaUBKTNV-1" source="IjD-qpXpODSvRZLo4zJF-8" target="GrfxNoX1KZF58iYZK9aE-24" edge="1">
          <mxGeometry relative="1" as="geometry" />
        </mxCell>
        <mxCell id="GrfxNoX1KZF58iYZK9aE-29" style="edgeStyle=none;curved=0;rounded=0;orthogonalLoop=1;jettySize=auto;html=1;entryX=1;entryY=0.5;entryDx=0;entryDy=0;fontSize=12;startSize=8;endSize=8;" parent="WIyWlLk6GJQsqaUBKTNV-1" source="GrfxNoX1KZF58iYZK9aE-27" target="IjD-qpXpODSvRZLo4zJF-8" edge="1">
          <mxGeometry relative="1" as="geometry">
            <Array as="points">
              <mxPoint x="420" y="120" />
            </Array>
            <mxPoint x="430" y="230" as="sourcePoint" />
          </mxGeometry>
        </mxCell>
        <mxCell id="GrfxNoX1KZF58iYZK9aE-27" value="Meldung&lt;br&gt;&quot;Bitte positive Zahlen eingeben&quot;" style="shape=parallelogram;perimeter=parallelogramPerimeter;whiteSpace=wrap;html=1;fixedSize=1;fillColor=#76608a;strokeColor=#432D57;fontColor=#ffffff;" parent="WIyWlLk6GJQsqaUBKTNV-1" vertex="1">
          <mxGeometry x="320" y="180" width="200" height="40" as="geometry" />
        </mxCell>
        <mxCell id="GrfxNoX1KZF58iYZK9aE-31" value="&lt;div&gt;&lt;span style=&quot;background-color: initial;&quot;&gt;nein&lt;/span&gt;&lt;br&gt;&lt;/div&gt;" style="text;strokeColor=none;fillColor=none;html=1;align=center;verticalAlign=middle;whiteSpace=wrap;rounded=0;fontSize=12;" parent="WIyWlLk6GJQsqaUBKTNV-1" vertex="1">
          <mxGeometry x="140" y="230" width="40" height="20" as="geometry" />
        </mxCell>
        <mxCell id="GrfxNoX1KZF58iYZK9aE-66" style="edgeStyle=none;curved=1;rounded=0;orthogonalLoop=1;jettySize=auto;html=1;exitX=0.5;exitY=1;exitDx=0;exitDy=0;fontSize=12;startSize=8;endSize=8;" parent="WIyWlLk6GJQsqaUBKTNV-1" source="GrfxNoX1KZF58iYZK9aE-31" target="GrfxNoX1KZF58iYZK9aE-31" edge="1">
          <mxGeometry relative="1" as="geometry" />
        </mxCell>
        <mxCell id="YSQYYeWARFUIAERYPVnf-3" style="edgeStyle=none;curved=1;rounded=0;orthogonalLoop=1;jettySize=auto;html=1;exitX=0;exitY=0.5;exitDx=0;exitDy=0;fontSize=12;startSize=8;endSize=8;" parent="WIyWlLk6GJQsqaUBKTNV-1" source="GrfxNoX1KZF58iYZK9aE-31" target="GrfxNoX1KZF58iYZK9aE-31" edge="1">
          <mxGeometry relative="1" as="geometry" />
        </mxCell>
        <mxCell id="YSQYYeWARFUIAERYPVnf-4" style="edgeStyle=none;curved=1;rounded=0;orthogonalLoop=1;jettySize=auto;html=1;exitX=1;exitY=1;exitDx=0;exitDy=0;fontSize=12;startSize=8;endSize=8;" parent="WIyWlLk6GJQsqaUBKTNV-1" source="GrfxNoX1KZF58iYZK9aE-31" target="GrfxNoX1KZF58iYZK9aE-31" edge="1">
          <mxGeometry relative="1" as="geometry" />
        </mxCell>
        <mxCell id="YSQYYeWARFUIAERYPVnf-5" style="edgeStyle=none;curved=1;rounded=0;orthogonalLoop=1;jettySize=auto;html=1;exitX=0;exitY=0.75;exitDx=0;exitDy=0;fontSize=12;startSize=8;endSize=8;" parent="WIyWlLk6GJQsqaUBKTNV-1" source="GrfxNoX1KZF58iYZK9aE-31" target="GrfxNoX1KZF58iYZK9aE-31" edge="1">
          <mxGeometry relative="1" as="geometry" />
        </mxCell>
        <mxCell id="YSQYYeWARFUIAERYPVnf-10" value="Ausgabe&lt;br&gt;&quot;Einkommensteuer = 0&quot;" style="shape=parallelogram;perimeter=parallelogramPerimeter;whiteSpace=wrap;html=1;fixedSize=1;fillColor=#76608a;strokeColor=#432D57;fontColor=#ffffff;" parent="WIyWlLk6GJQsqaUBKTNV-1" vertex="1">
          <mxGeometry x="599" y="300" width="200" height="40" as="geometry" />
        </mxCell>
        <mxCell id="YSQYYeWARFUIAERYPVnf-12" value="ja" style="text;strokeColor=none;fillColor=none;html=1;align=center;verticalAlign=middle;whiteSpace=wrap;rounded=0;fontSize=12;" parent="WIyWlLk6GJQsqaUBKTNV-1" vertex="1">
          <mxGeometry x="260" y="200" width="40" height="20" as="geometry" />
        </mxCell>
        <mxCell id="YSQYYeWARFUIAERYPVnf-39" style="edgeStyle=none;curved=1;rounded=0;orthogonalLoop=1;jettySize=auto;html=1;entryX=0;entryY=0.5;entryDx=0;entryDy=0;fontSize=12;startSize=8;endSize=8;" parent="WIyWlLk6GJQsqaUBKTNV-1" source="YSQYYeWARFUIAERYPVnf-14" target="YSQYYeWARFUIAERYPVnf-24" edge="1">
          <mxGeometry relative="1" as="geometry" />
        </mxCell>
        <mxCell id="YSQYYeWARFUIAERYPVnf-14" value="&lt;br&gt;y=(zvE -11604 / 10000)&lt;br&gt;ESt = (922.98 * y + 1400) * y&lt;div&gt;&lt;br&gt;&lt;/div&gt;" style="rounded=0;whiteSpace=wrap;html=1;fillColor=#0050ef;strokeColor=#001DBC;fontColor=#ffffff;" parent="WIyWlLk6GJQsqaUBKTNV-1" vertex="1">
          <mxGeometry x="320" y="460" width="200" height="40" as="geometry" />
        </mxCell>
        <mxCell id="YSQYYeWARFUIAERYPVnf-24" value="Ausgabe&lt;br&gt;Einkommensteuer: ESt" style="shape=parallelogram;perimeter=parallelogramPerimeter;whiteSpace=wrap;html=1;fixedSize=1;fillColor=#76608a;strokeColor=#432D57;fontColor=#ffffff;" parent="WIyWlLk6GJQsqaUBKTNV-1" vertex="1">
          <mxGeometry x="599" y="460" width="200" height="40" as="geometry" />
        </mxCell>
        <mxCell id="YSQYYeWARFUIAERYPVnf-27" value="ja" style="text;strokeColor=none;fillColor=none;html=1;align=center;verticalAlign=middle;whiteSpace=wrap;rounded=0;fontSize=12;" parent="WIyWlLk6GJQsqaUBKTNV-1" vertex="1">
          <mxGeometry x="239" y="480" width="40" height="20" as="geometry" />
        </mxCell>
        <mxCell id="SvODSNYQF4nknYnjiTSU-0" style="edgeStyle=none;curved=1;rounded=0;orthogonalLoop=1;jettySize=auto;html=1;entryX=0;entryY=0.5;entryDx=0;entryDy=0;fontSize=12;startSize=8;endSize=8;" parent="WIyWlLk6GJQsqaUBKTNV-1" source="YSQYYeWARFUIAERYPVnf-29" target="YSQYYeWARFUIAERYPVnf-10" edge="1">
          <mxGeometry relative="1" as="geometry" />
        </mxCell>
        <mxCell id="YSQYYeWARFUIAERYPVnf-29" value="zvE&lt;br&gt;&amp;lt;=11604" style="strokeWidth=2;html=1;shape=mxgraph.flowchart.decision;whiteSpace=wrap;fillColor=#60a917;fontColor=#ffffff;strokeColor=#2D7600;aspect=fixed;" parent="WIyWlLk6GJQsqaUBKTNV-1" vertex="1">
          <mxGeometry x="80" y="260" width="120" height="120" as="geometry" />
        </mxCell>
        <mxCell id="YSQYYeWARFUIAERYPVnf-33" value="ja" style="text;strokeColor=none;fillColor=none;html=1;align=center;verticalAlign=middle;whiteSpace=wrap;rounded=0;fontSize=12;" parent="WIyWlLk6GJQsqaUBKTNV-1" vertex="1">
          <mxGeometry x="220" y="320" width="40" height="20" as="geometry" />
        </mxCell>
        <mxCell id="YSQYYeWARFUIAERYPVnf-38" style="edgeStyle=none;curved=1;rounded=0;orthogonalLoop=1;jettySize=auto;html=1;exitX=1;exitY=0.5;exitDx=0;exitDy=0;exitPerimeter=0;entryX=0;entryY=0.5;entryDx=0;entryDy=0;fontSize=12;startSize=8;endSize=8;" parent="WIyWlLk6GJQsqaUBKTNV-1" source="YSQYYeWARFUIAERYPVnf-34" target="YSQYYeWARFUIAERYPVnf-14" edge="1">
          <mxGeometry relative="1" as="geometry" />
        </mxCell>
        <mxCell id="SvODSNYQF4nknYnjiTSU-1" style="edgeStyle=none;curved=1;rounded=0;orthogonalLoop=1;jettySize=auto;html=1;exitX=0.5;exitY=1;exitDx=0;exitDy=0;exitPerimeter=0;fontSize=12;startSize=8;endSize=8;" parent="WIyWlLk6GJQsqaUBKTNV-1" source="YSQYYeWARFUIAERYPVnf-34" target="YSQYYeWARFUIAERYPVnf-47" edge="1">
          <mxGeometry relative="1" as="geometry" />
        </mxCell>
        <mxCell id="YSQYYeWARFUIAERYPVnf-34" value="zvE&lt;br&gt;&amp;gt;=11605&lt;br&gt;&amp;lt;=17005" style="strokeWidth=2;html=1;shape=mxgraph.flowchart.decision;whiteSpace=wrap;fillColor=#60a917;fontColor=#ffffff;strokeColor=#2D7600;aspect=fixed;" parent="WIyWlLk6GJQsqaUBKTNV-1" vertex="1">
          <mxGeometry x="79" y="420" width="120" height="120" as="geometry" />
        </mxCell>
        <mxCell id="YSQYYeWARFUIAERYPVnf-35" style="edgeStyle=none;curved=1;rounded=0;orthogonalLoop=1;jettySize=auto;html=1;exitX=0.5;exitY=1;exitDx=0;exitDy=0;exitPerimeter=0;entryX=0.5;entryY=0;entryDx=0;entryDy=0;entryPerimeter=0;fontSize=12;startSize=8;endSize=8;" parent="WIyWlLk6GJQsqaUBKTNV-1" source="YSQYYeWARFUIAERYPVnf-29" target="YSQYYeWARFUIAERYPVnf-34" edge="1">
          <mxGeometry relative="1" as="geometry" />
        </mxCell>
        <mxCell id="YSQYYeWARFUIAERYPVnf-36" value="&lt;div&gt;&lt;span style=&quot;background-color: initial;&quot;&gt;nein&lt;/span&gt;&lt;br&gt;&lt;/div&gt;" style="text;strokeColor=none;fillColor=none;html=1;align=center;verticalAlign=middle;whiteSpace=wrap;rounded=0;fontSize=12;" parent="WIyWlLk6GJQsqaUBKTNV-1" vertex="1">
          <mxGeometry x="140" y="390" width="40" height="20" as="geometry" />
        </mxCell>
        <mxCell id="YSQYYeWARFUIAERYPVnf-40" value="1." style="text;strokeColor=none;fillColor=none;html=1;align=left;verticalAlign=middle;whiteSpace=wrap;rounded=0;fontSize=16;fontColor=#B3B3B3;" parent="WIyWlLk6GJQsqaUBKTNV-1" vertex="1">
          <mxGeometry x="79" y="260" width="40" height="20" as="geometry" />
        </mxCell>
        <mxCell id="YSQYYeWARFUIAERYPVnf-41" value="2." style="text;strokeColor=none;fillColor=none;html=1;align=left;verticalAlign=middle;whiteSpace=wrap;rounded=0;fontSize=16;fontColor=#B3B3B3;" parent="WIyWlLk6GJQsqaUBKTNV-1" vertex="1">
          <mxGeometry x="80" y="420" width="40" height="20" as="geometry" />
        </mxCell>
        <mxCell id="SvODSNYQF4nknYnjiTSU-16" style="edgeStyle=none;curved=1;rounded=0;orthogonalLoop=1;jettySize=auto;html=1;fontSize=12;startSize=8;endSize=8;" parent="WIyWlLk6GJQsqaUBKTNV-1" source="YSQYYeWARFUIAERYPVnf-43" target="YSQYYeWARFUIAERYPVnf-44" edge="1">
          <mxGeometry relative="1" as="geometry" />
        </mxCell>
        <mxCell id="YSQYYeWARFUIAERYPVnf-43" value="&lt;font style=&quot;font-size: 11px;&quot;&gt;z = (zvE - 17005) / 10000&lt;br&gt;ESt =(181.19 * z + 2397) * z + 1025.38&lt;/font&gt;" style="rounded=0;whiteSpace=wrap;html=1;fillColor=#0050ef;strokeColor=#001DBC;fontColor=#ffffff;" parent="WIyWlLk6GJQsqaUBKTNV-1" vertex="1">
          <mxGeometry x="320" y="620" width="205" height="40" as="geometry" />
        </mxCell>
        <mxCell id="YSQYYeWARFUIAERYPVnf-44" value="Ausgabe&lt;br&gt;Einkommensteuer: ESt" style="shape=parallelogram;perimeter=parallelogramPerimeter;whiteSpace=wrap;html=1;fixedSize=1;fillColor=#76608a;strokeColor=#432D57;fontColor=#ffffff;" parent="WIyWlLk6GJQsqaUBKTNV-1" vertex="1">
          <mxGeometry x="599" y="620" width="200" height="40" as="geometry" />
        </mxCell>
        <mxCell id="YSQYYeWARFUIAERYPVnf-45" value="ja" style="text;strokeColor=none;fillColor=none;html=1;align=center;verticalAlign=middle;whiteSpace=wrap;rounded=0;fontSize=12;" parent="WIyWlLk6GJQsqaUBKTNV-1" vertex="1">
          <mxGeometry x="240" y="640" width="40" height="20" as="geometry" />
        </mxCell>
        <mxCell id="SvODSNYQF4nknYnjiTSU-2" style="edgeStyle=none;curved=1;rounded=0;orthogonalLoop=1;jettySize=auto;html=1;exitX=1;exitY=0.5;exitDx=0;exitDy=0;exitPerimeter=0;entryX=0;entryY=0.5;entryDx=0;entryDy=0;fontSize=12;startSize=8;endSize=8;" parent="WIyWlLk6GJQsqaUBKTNV-1" source="YSQYYeWARFUIAERYPVnf-47" target="YSQYYeWARFUIAERYPVnf-43" edge="1">
          <mxGeometry relative="1" as="geometry" />
        </mxCell>
        <mxCell id="SvODSNYQF4nknYnjiTSU-3" value="" style="edgeStyle=none;curved=1;rounded=0;orthogonalLoop=1;jettySize=auto;html=1;fontSize=12;startSize=8;endSize=8;" parent="WIyWlLk6GJQsqaUBKTNV-1" source="YSQYYeWARFUIAERYPVnf-47" target="VYRceGr-HaSHmLBYMb2m-0" edge="1">
          <mxGeometry relative="1" as="geometry" />
        </mxCell>
        <mxCell id="YSQYYeWARFUIAERYPVnf-47" value="zvE&lt;br&gt;&amp;gt;=17006&lt;br&gt;&amp;lt;=66760" style="strokeWidth=2;html=1;shape=mxgraph.flowchart.decision;whiteSpace=wrap;fillColor=#60a917;fontColor=#ffffff;strokeColor=#2D7600;aspect=fixed;" parent="WIyWlLk6GJQsqaUBKTNV-1" vertex="1">
          <mxGeometry x="79" y="580" width="120" height="120" as="geometry" />
        </mxCell>
        <mxCell id="YSQYYeWARFUIAERYPVnf-48" value="3." style="text;strokeColor=none;fillColor=none;html=1;align=left;verticalAlign=middle;whiteSpace=wrap;rounded=0;fontSize=16;fontColor=#B3B3B3;" parent="WIyWlLk6GJQsqaUBKTNV-1" vertex="1">
          <mxGeometry x="80" y="580" width="40" height="20" as="geometry" />
        </mxCell>
        <mxCell id="YSQYYeWARFUIAERYPVnf-50" value="&lt;div&gt;&lt;span style=&quot;background-color: initial;&quot;&gt;nein&lt;/span&gt;&lt;br&gt;&lt;/div&gt;" style="text;strokeColor=none;fillColor=none;html=1;align=center;verticalAlign=middle;whiteSpace=wrap;rounded=0;fontSize=12;" parent="WIyWlLk6GJQsqaUBKTNV-1" vertex="1">
          <mxGeometry x="140" y="540" width="40" height="20" as="geometry" />
        </mxCell>
        <mxCell id="SvODSNYQF4nknYnjiTSU-4" style="edgeStyle=none;curved=1;rounded=0;orthogonalLoop=1;jettySize=auto;html=1;entryX=0;entryY=0.5;entryDx=0;entryDy=0;fontSize=12;startSize=8;endSize=8;" parent="WIyWlLk6GJQsqaUBKTNV-1" source="VYRceGr-HaSHmLBYMb2m-0" target="Lv4CQbqXF4G2ubcvHFCT-1" edge="1">
          <mxGeometry relative="1" as="geometry" />
        </mxCell>
        <mxCell id="VYRceGr-HaSHmLBYMb2m-0" value="jahresbrutto&lt;br&gt;&amp;gt;=66761&lt;br&gt;&amp;lt;=277825" style="strokeWidth=2;html=1;shape=mxgraph.flowchart.decision;whiteSpace=wrap;fillColor=#60a917;fontColor=#ffffff;strokeColor=#2D7600;aspect=fixed;" parent="WIyWlLk6GJQsqaUBKTNV-1" vertex="1">
          <mxGeometry x="79" y="740" width="120" height="120" as="geometry" />
        </mxCell>
        <mxCell id="Lv4CQbqXF4G2ubcvHFCT-0" value="4." style="text;strokeColor=none;fillColor=none;html=1;align=left;verticalAlign=middle;whiteSpace=wrap;rounded=0;fontSize=16;fontColor=#B3B3B3;" parent="WIyWlLk6GJQsqaUBKTNV-1" vertex="1">
          <mxGeometry x="80" y="740" width="40" height="20" as="geometry" />
        </mxCell>
        <mxCell id="SvODSNYQF4nknYnjiTSU-20" style="edgeStyle=none;curved=1;rounded=0;orthogonalLoop=1;jettySize=auto;html=1;exitX=1;exitY=0.5;exitDx=0;exitDy=0;entryX=0;entryY=0.5;entryDx=0;entryDy=0;fontSize=12;startSize=8;endSize=8;" parent="WIyWlLk6GJQsqaUBKTNV-1" source="Lv4CQbqXF4G2ubcvHFCT-1" target="SvODSNYQF4nknYnjiTSU-19" edge="1">
          <mxGeometry relative="1" as="geometry" />
        </mxCell>
        <mxCell id="Lv4CQbqXF4G2ubcvHFCT-1" value="&lt;div&gt;ESt = 0,42 * zvE - 10602.13&lt;br&gt;&lt;/div&gt;" style="rounded=0;whiteSpace=wrap;html=1;fillColor=#0050ef;strokeColor=#001DBC;fontColor=#ffffff;" parent="WIyWlLk6GJQsqaUBKTNV-1" vertex="1">
          <mxGeometry x="320" y="780" width="205" height="40" as="geometry" />
        </mxCell>
        <mxCell id="Lv4CQbqXF4G2ubcvHFCT-4" value="&lt;div&gt;&lt;span style=&quot;background-color: initial;&quot;&gt;nein&lt;/span&gt;&lt;br&gt;&lt;/div&gt;" style="text;strokeColor=none;fillColor=none;html=1;align=center;verticalAlign=middle;whiteSpace=wrap;rounded=0;fontSize=12;" parent="WIyWlLk6GJQsqaUBKTNV-1" vertex="1">
          <mxGeometry x="150" y="710" width="40" height="20" as="geometry" />
        </mxCell>
        <mxCell id="SvODSNYQF4nknYnjiTSU-13" style="edgeStyle=none;curved=1;rounded=0;orthogonalLoop=1;jettySize=auto;html=1;entryX=0;entryY=0.5;entryDx=0;entryDy=0;fontSize=12;startSize=8;endSize=8;" parent="WIyWlLk6GJQsqaUBKTNV-1" source="SvODSNYQF4nknYnjiTSU-5" target="SvODSNYQF4nknYnjiTSU-9" edge="1">
          <mxGeometry relative="1" as="geometry" />
        </mxCell>
        <mxCell id="SvODSNYQF4nknYnjiTSU-5" value="jahresbrutto&lt;br&gt;&amp;gt;277826" style="strokeWidth=2;html=1;shape=mxgraph.flowchart.decision;whiteSpace=wrap;fillColor=#60a917;fontColor=#ffffff;strokeColor=#2D7600;aspect=fixed;" parent="WIyWlLk6GJQsqaUBKTNV-1" vertex="1">
          <mxGeometry x="79" y="900" width="120" height="120" as="geometry" />
        </mxCell>
        <mxCell id="SvODSNYQF4nknYnjiTSU-6" value="5." style="text;strokeColor=none;fillColor=none;html=1;align=left;verticalAlign=middle;whiteSpace=wrap;rounded=0;fontSize=16;fontColor=#B3B3B3;" parent="WIyWlLk6GJQsqaUBKTNV-1" vertex="1">
          <mxGeometry x="80" y="900" width="40" height="20" as="geometry" />
        </mxCell>
        <mxCell id="SvODSNYQF4nknYnjiTSU-8" style="edgeStyle=none;curved=1;rounded=0;orthogonalLoop=1;jettySize=auto;html=1;entryX=0.5;entryY=0;entryDx=0;entryDy=0;entryPerimeter=0;fontSize=12;startSize=8;endSize=8;" parent="WIyWlLk6GJQsqaUBKTNV-1" source="VYRceGr-HaSHmLBYMb2m-0" target="SvODSNYQF4nknYnjiTSU-5" edge="1">
          <mxGeometry relative="1" as="geometry" />
        </mxCell>
        <mxCell id="SvODSNYQF4nknYnjiTSU-22" style="edgeStyle=none;curved=1;rounded=0;orthogonalLoop=1;jettySize=auto;html=1;entryX=0;entryY=0.5;entryDx=0;entryDy=0;fontSize=12;startSize=8;endSize=8;" parent="WIyWlLk6GJQsqaUBKTNV-1" source="SvODSNYQF4nknYnjiTSU-9" target="SvODSNYQF4nknYnjiTSU-21" edge="1">
          <mxGeometry relative="1" as="geometry" />
        </mxCell>
        <mxCell id="SvODSNYQF4nknYnjiTSU-9" value="&lt;div&gt;ESt = 0,45 Â· x - 18936.88&lt;br&gt;&lt;/div&gt;" style="rounded=0;whiteSpace=wrap;html=1;fillColor=#0050ef;strokeColor=#001DBC;fontColor=#ffffff;" parent="WIyWlLk6GJQsqaUBKTNV-1" vertex="1">
          <mxGeometry x="317.5" y="940" width="202.5" height="40" as="geometry" />
        </mxCell>
        <mxCell id="SvODSNYQF4nknYnjiTSU-10" value="&lt;div&gt;&lt;span style=&quot;background-color: initial;&quot;&gt;nein&lt;/span&gt;&lt;br&gt;&lt;/div&gt;" style="text;strokeColor=none;fillColor=none;html=1;align=center;verticalAlign=middle;whiteSpace=wrap;rounded=0;fontSize=12;" parent="WIyWlLk6GJQsqaUBKTNV-1" vertex="1">
          <mxGeometry x="140" y="860" width="40" height="20" as="geometry" />
        </mxCell>
        <mxCell id="SvODSNYQF4nknYnjiTSU-12" value="ja" style="text;strokeColor=none;fillColor=none;html=1;align=center;verticalAlign=middle;whiteSpace=wrap;rounded=0;fontSize=12;" parent="WIyWlLk6GJQsqaUBKTNV-1" vertex="1">
          <mxGeometry x="239" y="800" width="40" height="20" as="geometry" />
        </mxCell>
        <mxCell id="SvODSNYQF4nknYnjiTSU-14" value="Ende" style="ellipse;whiteSpace=wrap;html=1;fillColor=#e51400;strokeColor=#B20000;fontColor=#ffffff;" parent="WIyWlLk6GJQsqaUBKTNV-1" vertex="1">
          <mxGeometry x="599" y="1020" width="200" height="40" as="geometry" />
        </mxCell>
        <mxCell id="SvODSNYQF4nknYnjiTSU-19" value="Ausgabe&lt;br&gt;Einkommensteuer: ESt" style="shape=parallelogram;perimeter=parallelogramPerimeter;whiteSpace=wrap;html=1;fixedSize=1;fillColor=#76608a;strokeColor=#432D57;fontColor=#ffffff;" parent="WIyWlLk6GJQsqaUBKTNV-1" vertex="1">
          <mxGeometry x="600" y="780" width="200" height="40" as="geometry" />
        </mxCell>
        <mxCell id="SvODSNYQF4nknYnjiTSU-21" value="Ausgabe&lt;br&gt;Einkommensteuer: ESt" style="shape=parallelogram;perimeter=parallelogramPerimeter;whiteSpace=wrap;html=1;fixedSize=1;fillColor=#76608a;strokeColor=#432D57;fontColor=#ffffff;" parent="WIyWlLk6GJQsqaUBKTNV-1" vertex="1">
          <mxGeometry x="599" y="940" width="200" height="40" as="geometry" />
        </mxCell>
        <mxCell id="SvODSNYQF4nknYnjiTSU-23" value="ja" style="text;strokeColor=none;fillColor=none;html=1;align=center;verticalAlign=middle;whiteSpace=wrap;rounded=0;fontSize=12;" parent="WIyWlLk6GJQsqaUBKTNV-1" vertex="1">
          <mxGeometry x="239" y="960" width="40" height="20" as="geometry" />
        </mxCell>
        <mxCell id="SvODSNYQF4nknYnjiTSU-24" value="zvE = zu versteuerndes Einkommen&lt;br&gt;ESt = Einkommenssteuer" style="text;strokeColor=none;fillColor=none;html=1;align=center;verticalAlign=middle;whiteSpace=wrap;rounded=0;fontSize=16;" parent="WIyWlLk6GJQsqaUBKTNV-1" vertex="1">
          <mxGeometry x="525" y="100" width="290" as="geometry" />
        </mxCell>
      </root>
    </mxGraphModel>
  </diagram>
</mxfile>
